<svg viewBox="0 0 760 320" xmlns="http://www.w3.org/2000/svg" font-family="Arial, Helvetica, sans-serif">
  <rect width="760" height="320" fill="#ffffff"/>
  <rect x="300" y="20" width="160" height="46" rx="6" fill="#5d4037" stroke="#5d4037"/>
  <text x="380" y="48" text-anchor="middle" fill="#ffffff" font-size="17" font-weight="bold">Root of Drive</text>

  <line x1="380" y1="66" x2="90" y2="120" stroke="#616161" stroke-width="2"/>
  <line x1="380" y1="66" x2="290" y2="120" stroke="#616161" stroke-width="2"/>
  <line x1="380" y1="66" x2="470" y2="120" stroke="#616161" stroke-width="2"/>
  <line x1="380" y1="66" x2="670" y2="120" stroke="#616161" stroke-width="2"/>

  <rect x="20" y="120" width="140" height="46" rx="6" fill="#e3f2fd" stroke="#0d47a1" stroke-width="2"/>
  <text x="90" y="148" text-anchor="middle" fill="#212121" font-size="15" font-weight="bold">Library</text>

  <rect x="220" y="120" width="140" height="46" rx="6" fill="#fbe9e7" stroke="#c62828" stroke-width="2"/>
  <text x="290" y="148" text-anchor="middle" fill="#212121" font-size="15" font-weight="bold">System</text>

  <rect x="400" y="120" width="140" height="46" rx="6" fill="#e8f5e9" stroke="#1b5e20" stroke-width="2"/>
  <text x="470" y="148" text-anchor="middle" fill="#212121" font-size="15" font-weight="bold">Users</text>

  <rect x="600" y="120" width="140" height="46" rx="6" fill="#f3e5f5" stroke="#4a148c" stroke-width="2"/>
  <text x="670" y="148" text-anchor="middle" fill="#212121" font-size="15" font-weight="bold">Applications</text>

  <text x="90" y="185" text-anchor="middle" fill="#616161" font-size="12">shared, visible</text>
  <text x="290" y="185" text-anchor="middle" fill="#616161" font-size="12">read-only, signed</text>
  <text x="470" y="185" text-anchor="middle" fill="#616161" font-size="12">one folder per account</text>
  <text x="670" y="185" text-anchor="middle" fill="#616161" font-size="12">shared by everyone</text>

  <line x1="470" y1="166" x2="470" y2="220" stroke="#616161" stroke-width="2"/>
  <rect x="400" y="220" width="140" height="46" rx="6" fill="#e8f5e9" stroke="#1b5e20" stroke-width="2"/>
  <text x="470" y="248" text-anchor="middle" fill="#212121" font-size="14">/Users/yourname</text>

  <line x1="470" y1="266" x2="470" y2="290" stroke="#616161" stroke-width="2" stroke-dasharray="4,3"/>
  <rect x="380" y="290" width="180" height="26" rx="4" fill="#e3f2fd" stroke="#0d47a1" stroke-width="2"/>
  <text x="470" y="308" text-anchor="middle" fill="#212121" font-size="12">~/Library (hidden)</text>
</svg>
